<?xml version="1.0" encoding="UTF-8"?>
<svg version="1.1" xmlns="http://www.w3.org/2000/svg" width="1024" height="1024">
<path d="M0 0 C337.92 0 675.84 0 1024 0 C1024 337.92 1024 675.84 1024 1024 C686.08 1024 348.16 1024 0 1024 C0 686.08 0 348.16 0 0 Z " fill="#FDFDFD" transform="translate(0,0)"/>
<path d="M0 0 C0.83152588 -0.00807175 1.66305176 -0.01614349 2.51977539 -0.02445984 C4.2815545 -0.03827654 6.0433601 -0.04900947 7.80517578 -0.05688477 C9.58748346 -0.06834915 11.36975833 -0.08871205 13.15185547 -0.1184082 C26.08964463 -0.33375731 38.27408595 -0.13156254 48.7578125 8.546875 C56.1106176 15.68536067 61.08473106 24.79678769 61.66113281 35.12573242 C61.7068236 38.55918233 61.73525506 41.99205304 61.75 45.42578125 C61.770625 46.60720703 61.79125 47.78863281 61.8125 49.00585938 C61.86994693 61.96732328 58.68600219 72.40343011 49.76953125 82.125 C41.73391248 89.42509302 32.21563445 92.54491274 21.515625 92.57421875 C20.23217194 92.58420395 20.23217194 92.58420395 18.92279053 92.59439087 C17.11749407 92.60448218 15.31216057 92.60920898 13.50683594 92.60888672 C10.77214629 92.61324595 8.03909066 92.64956324 5.3046875 92.6875 C-11.60614501 92.7973332 -11.60614501 92.7973332 -19.5 88.23828125 C-20.40234375 87.7690625 -21.3046875 87.29984375 -22.234375 86.81640625 C-31.84862893 80.48143273 -36.37429609 72.24905375 -39.5 61.23828125 C-40.06167568 56.66047738 -40.18404833 52.17198502 -40.09692383 47.56225586 C-40.0623284 45.54075446 -40.07641227 43.52358559 -40.09570312 41.50195312 C-40.00231471 28.86961308 -36.44929751 18.90470528 -27.91015625 9.484375 C-20.17011351 2.21784076 -10.28611534 0.09560144 0 0 Z " fill="#060606" transform="translate(614.5,440.76171875)"/>
<path d="M0 0 C1.0879335 -0.0099852 1.0879335 -0.0099852 2.19784546 -0.02017212 C3.73261998 -0.03028165 5.26743831 -0.03498966 6.80224609 -0.03466797 C9.12023146 -0.03900967 11.43626151 -0.07525469 13.75390625 -0.11328125 C21.74328843 -0.17463702 29.58096927 -0.18843213 36.5234375 4.3359375 C37.5134375 5.8209375 37.5134375 5.8209375 38.5234375 7.3359375 C37.5746875 7.6246875 36.6259375 7.9134375 35.6484375 8.2109375 C32.47132172 9.10418859 32.47132172 9.10418859 30.5234375 11.3359375 C31.4721875 12.0990625 32.4209375 12.8621875 33.3984375 13.6484375 C35.68953645 15.49127796 36.83568694 16.80431167 38.5234375 19.3359375 C38.5234375 20.3259375 38.5234375 21.3159375 38.5234375 22.3359375 C39.16152344 22.32433594 39.79960938 22.31273437 40.45703125 22.30078125 C41.28332031 22.29175781 42.10960937 22.28273438 42.9609375 22.2734375 C43.78464844 22.26183594 44.60835937 22.25023437 45.45703125 22.23828125 C47.5234375 22.3359375 47.5234375 22.3359375 48.5234375 23.3359375 C48.61013182 24.8246561 48.63047244 26.3173825 48.62109375 27.80859375 C48.61625977 29.15727539 48.61625977 29.15727539 48.61132812 30.53320312 C48.59875977 31.95149414 48.59875977 31.95149414 48.5859375 33.3984375 C48.58142578 34.34783203 48.57691406 35.29722656 48.57226562 36.27539062 C48.56043878 38.62893281 48.54250271 40.98244282 48.5234375 43.3359375 C45.2234375 43.3359375 41.9234375 43.3359375 38.5234375 43.3359375 C38.1521875 44.66625 38.1521875 44.66625 37.7734375 46.0234375 C36.00839029 50.7008126 33.11184207 53.92695316 29.5234375 57.3359375 C30.915625 57.5215625 30.915625 57.5215625 32.3359375 57.7109375 C35.5234375 58.3359375 35.5234375 58.3359375 38.5234375 60.3359375 C30.45907981 67.03760923 22.82459984 67.24648646 12.82763672 67.06323242 C10.39503396 67.02338174 7.96785583 67.0426256 5.53515625 67.06835938 C-2.65524104 67.06174456 -8.97625451 66.8761729 -15.4765625 61.3359375 C-13.1793415 59.59321812 -10.87789521 57.93682598 -8.4765625 56.3359375 C-8.88648438 55.86542969 -9.29640625 55.39492188 -9.71875 54.91015625 C-10.25757813 54.28753906 -10.79640625 53.66492188 -11.3515625 53.0234375 C-11.88523437 52.40855469 -12.41890625 51.79367187 -12.96875 51.16015625 C-15.67023427 47.8917802 -16.4765625 46.7155493 -16.4765625 42.3359375 C-19.7765625 42.3359375 -23.0765625 42.3359375 -26.4765625 42.3359375 C-26.4765625 35.7359375 -26.4765625 29.1359375 -26.4765625 22.3359375 C-22.8465625 22.3359375 -19.2165625 22.3359375 -15.4765625 22.3359375 C-15.1465625 21.0159375 -14.8165625 19.6959375 -14.4765625 18.3359375 C-12.84765625 15.9765625 -12.84765625 15.9765625 -10.9140625 13.5859375 C-9.95306641 12.38710938 -9.95306641 12.38710938 -8.97265625 11.1640625 C-8.47894531 10.56078125 -7.98523438 9.9575 -7.4765625 9.3359375 C-10.4465625 8.6759375 -13.4165625 8.0159375 -16.4765625 7.3359375 C-11.04086643 1.59825831 -7.86040446 0.02529228 0 0 Z " fill="#F7F7F7" transform="translate(614.4765625,453.6640625)"/>
<path d="M0 0 C6.93 0 13.86 0 21 0 C22.14597656 2.30226563 23.29195313 4.60453125 24.47265625 6.9765625 C28.35857307 14.76121004 32.33086538 22.49918973 36.32714844 30.2276001 C41.5787731 40.38414751 46.80128702 50.55197293 51.87890625 60.796875 C52.27017197 61.58530792 52.66143768 62.37374084 53.06455994 63.18606567 C54.94916441 66.98634563 56.82631073 70.79006649 58.69311523 74.59912109 C59.36813607 75.96461254 60.04333755 77.33001471 60.71875 78.6953125 C61.02313492 79.32274353 61.32751984 79.95017456 61.64112854 80.59661865 C63.16118794 83.9045212 63.16118794 83.9045212 66 86 C66.32677734 84.98873047 66.32677734 84.98873047 66.66015625 83.95703125 C68.41329043 80.08786922 70.83887533 77.02759782 73.4375 73.6875 C77.60261583 68.23709466 81.64195655 62.73468372 85.5 57.0625 C86.41013406 55.72654738 87.32029048 54.39061 88.23046875 53.0546875 C88.68470215 52.38791992 89.13893555 51.72115234 89.60693359 51.03417969 C96.84816926 40.46040199 104.29193129 30.01285898 112.00366211 19.77685547 C114.61344063 16.30797524 117.1341185 12.88418206 119.32421875 9.1328125 C124.04484136 1.4898997 124.04484136 1.4898997 127.93505859 0.51513672 C132.69029099 -0.00585275 137.2730312 0.37360413 142 1 C137.75222637 7.57719787 133.16740991 13.81183259 128.375 20 C121.84025315 28.50806645 115.54808595 37.14404972 109.42675781 45.95263672 C107.01120786 49.41889303 104.56576411 52.86397792 102.125 56.3125 C97.14156758 63.36662886 92.18470335 70.43919026 87.23999023 77.52050781 C84.33786694 81.67367882 81.42371111 85.81724854 78.48046875 89.94140625 C77.92552734 90.72064453 77.37058594 91.49988281 76.79882812 92.30273438 C75.7499176 93.77375192 74.69798587 95.2426214 73.64257812 96.70898438 C71.68952072 99.45082845 70.07108583 101.78674252 69 105 C65.37 105 61.74 105 58 105 C57.53851563 104.05382812 57.07703125 103.10765625 56.6015625 102.1328125 C51.40259817 91.55883138 45.78857776 81.26072836 40 71 C39.27302567 69.70465812 38.54644626 68.40909451 37.8203125 67.11328125 C35.97598771 63.82441183 34.12505845 60.53931094 32.27197266 57.25537109 C30.8710892 54.77142457 29.4727282 52.28606511 28.07421875 49.80078125 C22.38147717 39.69446674 16.65464528 29.60779666 10.87408447 19.55145264 C9.89345879 17.84462838 8.9152121 16.13643803 7.93701172 14.42822266 C7.33646973 13.38585449 6.73592773 12.34348633 6.1171875 11.26953125 C5.58722168 10.34760986 5.05725586 9.42568848 4.51123047 8.47583008 C3.05321751 5.98769069 3.05321751 5.98769069 1.30517578 3.7956543 C0 2 0 2 0 0 Z " fill="#050505" transform="translate(425,438)"/>
<path d="M0 0 C14.62407407 0 14.62407407 0 22 7 C23.7205197 8.40647788 25.45024713 9.8017437 27.1875 11.1875 C32.11644606 15.23406131 36.95614323 19.37809278 41.78759766 23.53979492 C48.73535818 29.51348977 55.84512007 35.27609606 63 41 C63.33 27.47 63.66 13.94 64 0 C68.62 0 73.24 0 78 0 C78 20.79 78 41.58 78 63 C67.2779117 63 64.14084532 62.3596559 56.8125 55.375 C52.32821156 51.19288733 47.72301474 47.26795119 42.953125 43.41796875 C39.00657899 40.18660369 35.1472701 36.85809518 31.29760742 33.51220703 C26.31050233 29.20075514 21.16494606 25.09575486 16 21 C15.97494385 22.2367749 15.9498877 23.4735498 15.92407227 24.74780273 C15.83017747 29.31936713 15.72991371 33.89077318 15.62768555 38.4621582 C15.58426856 40.44389146 15.54259863 42.42566378 15.50268555 44.4074707 C15.44514617 47.2496317 15.38140555 50.09159483 15.31640625 52.93359375 C15.29133751 54.27108925 15.29133751 54.27108925 15.26576233 55.63560486 C15.11387171 61.88612829 15.11387171 61.88612829 14 63 C9.38 63 4.76 63 0 63 C0 42.21 0 21.42 0 0 Z " fill="#0A0A0A" transform="translate(689,465)"/>
<path d="M0 0 C4.62 0 9.24 0 14 0 C14 7.92 14 15.84 14 24 C30.17 23.67 46.34 23.34 63 23 C63.33 15.41 63.66 7.82 64 0 C68.62 0 73.24 0 78 0 C78 20.46 78 40.92 78 62 C73.38 62 68.76 62 64 62 C64 53.42 64 44.84 64 36 C47.5 36 31 36 14 36 C14 44.91 14 53.82 14 63 C9.38 63 4.76 63 0 63 C0 42.21 0 21.42 0 0 Z " fill="#050505" transform="translate(348,465)"/>
<path d="M0 0 C1.78315883 -0.02311708 3.56722286 -0.00206801 5.34965515 0.05383301 C6.32574234 0.05266479 7.30182953 0.05149658 8.30749512 0.05029297 C11.52832703 0.05585921 14.74543858 0.11804385 17.96562195 0.18078613 C20.20047991 0.19570981 22.43536407 0.20709623 24.67025757 0.21508789 C30.54819697 0.24561132 36.42455099 0.32417864 42.30186462 0.41271973 C48.30089367 0.49460528 54.30017932 0.53110532 60.29960632 0.57141113 C72.06788045 0.6571706 83.83497867 0.79368214 95.6023407 0.96203613 C92.8993949 9.33421165 92.8993949 9.33421165 89.6023407 12.96203613 C86.69003532 13.78055584 83.90438254 13.66278724 80.8992157 13.54797363 C79.64253082 13.53523911 79.64253082 13.53523911 78.36045837 13.52224731 C75.68976639 13.48871187 73.02211658 13.41343901 70.3523407 13.33703613 C68.53988437 13.30693641 66.72738061 13.27956061 64.9148407 13.25500488 C60.47617209 13.18892087 56.03977175 13.08540355 51.6023407 12.96203613 C51.64897354 14.12142952 51.64897354 14.12142952 51.69654846 15.304245 C51.97885227 22.6431004 52.19106279 29.97927341 52.32771111 37.3221693 C52.40033851 41.09635356 52.49851753 44.86600133 52.65849304 48.63757324 C53.74921851 75.01766026 53.74921851 75.01766026 48.49394226 81.91369629 C45.21927438 85.31460151 41.77757222 87.77523572 37.6023407 89.96203613 C36.9423407 89.96203613 36.2823407 89.96203613 35.6023407 89.96203613 C35.6023407 64.55203613 35.6023407 39.14203613 35.6023407 12.96203613 C20.0923407 12.96203613 4.5823407 12.96203613 -11.3976593 12.96203613 C-10.7376593 11.64203613 -10.0776593 10.32203613 -9.3976593 8.96203613 C-9.08535275 8.26616646 -8.77304621 7.57029678 -8.45127583 6.85334015 C-6.31202551 2.68341626 -4.82776887 0.49319461 0 0 Z " fill="#010101" transform="translate(99.39765930175781,443.0379638671875)"/>
<path d="M0 0 C1.9216523 0.0001133 1.9216523 0.0001133 3.88212585 0.00022888 C5.28054849 0.00533552 6.67897073 0.01055152 8.07739258 0.01586914 C9.50800019 0.0177345 10.93860844 0.01915785 12.36921692 0.02015686 C16.13229133 0.02397272 19.89532708 0.03379507 23.65838623 0.04486084 C27.49922157 0.05509496 31.34006316 0.05965877 35.1809082 0.06469727 C42.71543103 0.07541817 50.24992201 0.09248343 57.78442383 0.11352539 C54.20876589 9.30695947 54.20876589 9.30695947 50.78442383 12.11352539 C46.95121573 13.11437323 43.22230983 12.99700201 39.28051758 12.91040039 C38.16508072 12.91557678 37.04964386 12.92075317 35.90040588 12.92608643 C32.34001111 12.93798259 28.7820844 12.90343265 25.22192383 12.86352539 C21.65869631 12.84478547 18.09599982 12.83601705 14.5327301 12.84381104 C12.316814 12.84649422 10.10080375 12.83268465 7.88511658 12.80072021 C6.37818993 12.79652069 6.37818993 12.79652069 4.84082031 12.79223633 C3.95877426 12.78222595 3.07672821 12.77221558 2.16795349 12.76190186 C-0.75392213 13.19294337 -2.09247305 14.08652646 -4.21557617 16.11352539 C-5.88195239 21.11265404 -5.40014087 26.3173879 -5.40307617 31.55102539 C-5.41532227 32.69635742 -5.42756836 33.84168945 -5.44018555 35.02172852 C-5.44211914 36.12323242 -5.44405273 37.22473633 -5.44604492 38.35961914 C-5.45220825 39.87060181 -5.45220825 39.87060181 -5.45849609 41.41210938 C-5.20976055 44.17819865 -4.72448455 45.7999101 -3.21557617 48.11352539 C-0.59379838 49.42441429 1.39967017 49.27436246 4.33569336 49.31884766 C6.07727219 49.34876549 6.07727219 49.34876549 7.85403442 49.37928772 C9.11239105 49.39600021 10.37074768 49.41271271 11.66723633 49.42993164 C12.95177704 49.45071274 14.23631775 49.47149384 15.55978394 49.49290466 C18.97591742 49.54811588 22.39211128 49.59752927 25.80834961 49.64575195 C29.29391864 49.69597396 32.77939992 49.75165636 36.26489258 49.80688477 C43.10466024 49.91445467 49.94450717 50.01590223 56.78442383 50.11352539 C55.80768279 52.09389025 54.82796401 54.07278672 53.84692383 56.05102539 C53.02901367 57.70424805 53.02901367 57.70424805 52.19458008 59.39086914 C50.78442383 62.11352539 50.78442383 62.11352539 49.78442383 63.11352539 C48.2058908 63.22252859 46.62252918 63.26257917 45.0402832 63.2746582 C44.02832886 63.28426575 43.01637451 63.29387329 41.97375488 63.30377197 C40.31769226 63.31014679 40.31769226 63.31014679 38.62817383 63.31665039 C36.93102234 63.3252005 36.93102234 63.3252005 35.19958496 63.33392334 C32.79525696 63.34339506 30.39091585 63.34991589 27.98657227 63.35375977 C24.32780764 63.36341095 20.66961764 63.39439172 17.01098633 63.42602539 C14.67505216 63.43256065 12.33911398 63.43780906 10.00317383 63.44165039 C8.91532593 63.45399719 7.82747803 63.46634399 6.70666504 63.47906494 C-1.0609707 63.45658897 -7.94581616 62.81463149 -14.09057617 57.73852539 C-20.65173791 49.63356088 -20.47942501 42.04922276 -20.56567383 31.98608398 C-20.58219335 30.57803777 -20.60943134 29.17007404 -20.64770508 27.76245117 C-20.87588388 19.29999393 -20.89387541 11.91227832 -15.21557617 5.11352539 C-10.55742982 0.94849094 -6.11686763 -0.01201742 0 0 Z " fill="#060606" transform="translate(282.215576171875,464.886474609375)"/>
<path d="M0 0 C4.95 0 9.9 0 15 0 C15 6 15 6 14 8 C31.49 8 48.98 8 67 8 C66.34 11.96 65.68 15.92 65 20 C48.17 20 31.34 20 14 20 C14 23.96 14 27.92 14 32 C17.04637299 33.01545766 19.19777098 33.1541977 22.3894043 33.20532227 C24.04077644 33.2352401 24.04077644 33.2352401 25.72550964 33.26576233 C27.50687065 33.29083107 27.50687065 33.29083107 29.32421875 33.31640625 C30.54075638 33.33718735 31.75729401 33.35796844 33.01069641 33.37937927 C36.90290596 33.44484717 40.79518385 33.50374715 44.6875 33.5625 C47.32357482 33.60568782 49.95964269 33.6493022 52.59570312 33.69335938 C59.06372951 33.80052578 65.53182411 33.90229745 72 34 C72.25394531 34.54269531 72.50789063 35.08539062 72.76953125 35.64453125 C73.11371094 36.35996094 73.45789063 37.07539062 73.8125 37.8125 C74.14894531 38.52019531 74.48539062 39.22789062 74.83203125 39.95703125 C75.91413325 42.05757461 75.91413325 42.05757461 77.63671875 43.63671875 C79 45 79 45 79 47 C70.53289091 47.09295482 62.06599742 47.16389321 53.59850311 47.20724869 C49.66607045 47.22806427 45.73398861 47.25627007 41.80175781 47.30175781 C38.00214726 47.345433 34.20287273 47.36918239 30.4030304 47.37950897 C28.95822363 47.38686174 27.51343386 47.40121968 26.06877136 47.42292023 C18.14070074 47.53720064 11.79883387 47.49410888 5 43 C1.22464712 39.22464712 0.09336264 34.52572626 -0.22705078 29.28955078 C-0.22673852 27.92476372 -0.21570215 26.55994728 -0.1953125 25.1953125 C-0.1924826 24.4713327 -0.18965271 23.74735291 -0.18673706 23.00143433 C-0.17562087 20.7091151 -0.15053312 18.41719937 -0.125 16.125 C-0.1149591 14.56250568 -0.10583519 13.00000518 -0.09765625 11.4375 C-0.07741858 7.62472282 -0.0382556 3.81280835 0 0 Z " fill="#080908" transform="translate(177,481)"/>
<path d="M0 0 C14.85293855 -1.20293766 14.85293855 -1.20293766 19.30078125 1.2890625 C21.11982 3.41052208 22.52299931 5.6257559 24 8 C25.35239942 9.78356875 26.74580997 11.52981456 28.14501953 13.27685547 C29.56445587 15.04939474 30.96022754 16.83817739 32.3515625 18.6328125 C34.12185108 20.9122723 35.95201905 23.1184936 37.8359375 25.3046875 C40 28 40 28 40 30 C44.68281931 25.65484128 48.31742848 20.72140553 52.0625 15.5625 C52.67416016 14.72912109 53.28582031 13.89574219 53.91601562 13.03710938 C54.81030273 11.81411133 54.81030273 11.81411133 55.72265625 10.56640625 C56.29999512 9.78362305 56.87733398 9.00083984 57.47216797 8.19433594 C58.78318775 6.31139478 59.82134112 4.44898297 60.88671875 2.42578125 C63 0 63 0 64.89672852 -0.45776367 C67.21309959 -0.59194604 69.43500223 -0.52472622 71.75 -0.375 C72.54277344 -0.34792969 73.33554687 -0.32085937 74.15234375 -0.29296875 C76.10273366 -0.22247273 78.05171901 -0.11485499 80 0 C78.55013405 3.20420375 76.74676036 5.67704596 74.5 8.375 C71.24240491 12.3838963 68.16908625 16.47314817 65.1875 20.6875 C61.28916613 26.19746488 57.34787423 31.67050094 53.3215332 37.08789062 C50.71179341 40.61197514 48.18687194 44.17560014 45.73046875 47.80859375 C45.17206299 48.61973633 44.61365723 49.43087891 44.03833008 50.26660156 C42.95981356 51.83633146 41.89732408 53.41724219 40.85424805 55.01074219 C36.30223259 61.57196851 31.34037196 63.90587532 23.71484375 65.828125 C22.34005859 66.03695312 22.34005859 66.03695312 20.9375 66.25 C19.99777344 66.39953125 19.05804687 66.5490625 18.08984375 66.703125 C17.40019531 66.80109375 16.71054687 66.8990625 16 67 C17.57718773 62.16638349 20.34355252 58.56321293 23.375 54.5625 C26.71194768 50.11472348 29.96164925 45.65832449 33 41 C32.01 40.67 31.02 40.34 30 40 C28.54882812 38.36450195 28.54882812 38.36450195 27.03125 36.23828125 C26.465271 35.45549805 25.89929199 34.67271484 25.31616211 33.86621094 C24.71682861 33.02348633 24.11749512 32.18076172 23.5 31.3125 C22.24272361 29.57288875 20.98358978 27.83461851 19.72265625 26.09765625 C18.78317139 24.80239014 18.78317139 24.80239014 17.82470703 23.48095703 C14.86165251 19.4522495 11.76579666 15.53364991 8.640625 11.63012695 C5.61895308 7.84290921 2.79003361 3.95876427 0 0 Z " fill="#050505" transform="translate(773,465)"/>
<path d="M0 0 C1.20205078 -0.03996094 2.40410156 -0.07992188 3.64257812 -0.12109375 C12.23218834 -0.11161817 12.23218834 -0.11161817 15.75390625 2.50024414 C17.52446815 4.5396565 19.03682825 6.64863244 20.5625 8.875 C21.579504 9.97761146 22.62290238 11.05666672 23.6953125 12.10546875 C24.43974609 12.84506836 24.43974609 12.84506836 25.19921875 13.59960938 C25.93591797 14.32374023 25.93591797 14.32374023 26.6875 15.0625 C27.43580078 15.8040332 27.43580078 15.8040332 28.19921875 16.56054688 C29.18100692 17.53336309 30.16411912 18.50484525 31.14868164 19.47485352 C32.52732492 20.84016506 33.89084397 22.22069534 35.25390625 23.6015625 C37.55935779 25.96013899 37.55935779 25.96013899 40.375 28.0625 C41.4578125 28.9596875 41.4578125 28.9596875 42.5625 29.875 C42.5625 30.535 42.5625 31.195 42.5625 31.875 C40.18718606 31.9293965 37.81314117 31.96885864 35.4375 32 C34.77234375 32.01675781 34.1071875 32.03351562 33.421875 32.05078125 C27.26121061 32.11117992 23.31232589 31.41251368 18.6328125 27.30078125 C17.64165892 26.27197843 16.66015604 25.23380821 15.6875 24.1875 C14.63975058 23.10249365 13.59027014 22.01915619 12.5390625 20.9375 C12.0327832 20.41285156 11.52650391 19.88820313 11.00488281 19.34765625 C9.08616197 17.38866436 7.10164563 15.52043989 5.0625 13.6875 C4.18078125 12.89279297 4.18078125 12.89279297 3.28125 12.08203125 C1.24209374 10.64998742 0.05847898 10.08017602 -2.4375 9.875 C-4.64132245 11.46606684 -4.64132245 11.46606684 -6.703125 13.828125 C-7.51136719 14.67503906 -8.31960938 15.52195312 -9.15234375 16.39453125 C-10.82742324 18.19866155 -12.50191347 20.00333917 -14.17578125 21.80859375 C-20.22996965 28.15061995 -24.30216347 31.48358715 -33.28125 32.16796875 C-34.4878125 32.13316406 -35.694375 32.09835937 -36.9375 32.0625 C-38.1646875 32.03542969 -39.391875 32.00835938 -40.65625 31.98046875 C-41.5740625 31.94566406 -42.491875 31.91085937 -43.4375 31.875 C-41.825172 27.84418 -38.97515404 25.11555863 -35.9375 22.125 C-35.43863281 21.61839844 -34.93976562 21.11179687 -34.42578125 20.58984375 C-30.69091139 16.875 -30.69091139 16.875 -28.4375 16.875 C-28.1075 15.885 -27.7775 14.895 -27.4375 13.875 C-25.80078125 12.26171875 -25.80078125 12.26171875 -23.75 10.5625 C-21.11084275 8.36405638 -19.11738358 6.45658417 -17.0078125 3.69921875 C-12.41074031 -0.92687994 -6.10816386 -0.07182234 0 0 Z " fill="#070808" transform="translate(894.4375,496.125)"/>
<path d="M0 0 C1.24401833 0.04314331 1.24401833 0.04314331 2.51316833 0.0871582 C3.84584496 0.08540588 3.84584496 0.08540588 5.20544434 0.08361816 C8.12880815 0.0891719 11.04804127 0.15129055 13.97068787 0.21411133 C16.00233227 0.22903963 18.03400555 0.24042387 20.06568909 0.24841309 C25.40281749 0.27890073 30.73819304 0.35743525 36.07463074 0.44604492 C41.5241169 0.52800886 46.97388745 0.56444713 52.42381287 0.60473633 C63.10947718 0.69043227 73.7938428 0.82689898 84.47850037 0.99536133 C83.3342377 2.80885333 82.18804645 4.62112858 81.04100037 6.43286133 C80.40291443 7.44219727 79.76482849 8.4515332 79.10740662 9.49145508 C77.47850037 11.99536133 77.47850037 11.99536133 76.47850037 12.99536133 C73.64809364 13.09057039 70.84215044 13.12089764 68.01145935 13.10888672 C67.1237384 13.10903275 66.23601746 13.10917877 65.32139587 13.10932922 C62.37243752 13.10862976 59.4235415 13.10083581 56.47459412 13.09301758 C54.43578119 13.09115352 52.39696783 13.08972956 50.3581543 13.08872986 C44.98065463 13.08490374 39.60318179 13.07507265 34.22569275 13.06402588 C28.74290836 13.05381378 23.26011965 13.04923267 17.77732849 13.04418945 C7.01104064 13.03345047 -3.75522727 13.01637292 -14.52149963 12.99536133 C-8.2975198 0.11790437 -8.2975198 0.11790437 0 0 Z " fill="#159BC3" transform="translate(171.52149963378906,464.004638671875)"/>
<path d="M0 0 C1.39456452 0.00667256 2.78911118 0.01863093 4.18359375 0.03515625 C5.2499707 0.04192383 5.2499707 0.04192383 6.33789062 0.04882812 C8.09899388 0.06064761 9.86005411 0.07858362 11.62109375 0.09765625 C7.19361298 7.45600458 2.2915174 14.29110628 -2.90112305 21.11889648 C-6.5756855 25.97069581 -9.99017369 30.93955924 -13.3203125 36.03515625 C-17.05941667 41.59769452 -21.08699235 46.95245632 -25.07568359 52.33740234 C-29.96831554 58.94584677 -34.782871 65.54643802 -39.15234375 72.515625 C-39.55710937 73.03769531 -39.961875 73.55976562 -40.37890625 74.09765625 C-41.03890625 74.09765625 -41.69890625 74.09765625 -42.37890625 74.09765625 C-43.2730568 72.35736323 -44.14365803 70.60495475 -45.00390625 68.84765625 C-45.49117188 67.873125 -45.9784375 66.89859375 -46.48046875 65.89453125 C-47.37890625 63.09765625 -47.37890625 63.09765625 -46.58276367 61.13793945 C-45.4635998 59.24119387 -44.29978011 57.44466905 -43.015625 55.65625 C-42.54737305 54.99963379 -42.07912109 54.34301758 -41.59667969 53.66650391 C-40.83919434 52.61148682 -40.83919434 52.61148682 -40.06640625 51.53515625 C-35.51376066 45.14613772 -31.04097536 38.70950991 -26.62890625 32.22265625 C-21.99670585 25.42336445 -17.26599987 18.71688432 -12.37890625 12.09765625 C-10.89880143 10.0566696 -9.41962902 8.01500643 -7.94140625 5.97265625 C-3.69573222 0.10681307 -3.69573222 0.10681307 0 0 Z " fill="#050505" transform="translate(531.37890625,438.90234375)"/>
<path d="M0 0 C2.18721529 -0.05460454 4.37483631 -0.0930633 6.5625 -0.125 C8.38974609 -0.15980469 8.38974609 -0.15980469 10.25390625 -0.1953125 C19.44296158 0.28378319 23.22013364 3.65981755 29.1875 10.1875 C30.5648547 11.69203426 31.95368966 13.18616421 33.35546875 14.66796875 C33.96028076 15.33078857 34.56509277 15.9936084 35.18823242 16.67651367 C36.89645289 18.2131135 36.89645289 18.2131135 39.00488281 17.91503906 C41.37668851 16.82723586 42.7559001 15.56984047 44.56640625 13.69140625 C45.21673828 13.02689453 45.86707031 12.36238281 46.53710938 11.67773438 C47.20548828 10.97970703 47.87386719 10.28167969 48.5625 9.5625 C49.89491614 8.18664939 51.2294681 6.81286316 52.56640625 5.44140625 C53.44727905 4.52403687 53.44727905 4.52403687 54.34594727 3.58813477 C57.29461661 0.75697697 59.22557858 -0.25211945 63.23046875 -0.1953125 C64.43413086 -0.18564453 64.43413086 -0.18564453 65.66210938 -0.17578125 C66.49548828 -0.15902344 67.32886719 -0.14226562 68.1875 -0.125 C69.4549707 -0.11146484 69.4549707 -0.11146484 70.74804688 -0.09765625 C72.83215243 -0.07410703 74.91611217 -0.03823647 77 0 C76.17886719 0.95003906 75.35773438 1.90007812 74.51171875 2.87890625 C72.67517909 5.00466475 70.88752242 7.14409419 69.15869141 9.35888672 C61.82822076 18.67740595 54.51428716 26.84634938 42.28320312 28.59033203 C32.23176451 29.06122321 25.22420679 27.00388007 17.71484375 20.39453125 C11.28629042 14.45078203 5.36230486 7.91944244 0 1 C0 0.67 0 0.34 0 0 Z " fill="#070707" transform="translate(855,465)"/>
<path d="M0 0 C-0.33 1.32 -0.66 2.64 -1 4 C-0.01 4.33 0.98 4.66 2 5 C-0.05258824 7.05258824 -2.10533087 9.10232141 -4.1875 11.125 C-7.60718479 14.66260496 -7.27610342 17.79963657 -7.21484375 22.5234375 C-6.93315491 25.77054159 -6.15142982 27.55182123 -4 30 C-0.04611219 33.18507629 3.00067208 33.51717185 8 33 C12.25214285 31.70273608 14.48009078 30.58656425 17.4375 27.25 C19.79393516 22.34861486 19.6411704 18.92351119 17.9375 13.8125 C15.39682934 10.12442968 12.99410021 8.95936991 9 7 C9.33 6.01 9.66 5.02 10 4 C10.66 4 11.32 4 12 4 C12.33 2.68 12.66 1.36 13 0 C19.46118439 3.62339373 24.20324885 6.97869982 27.3125 13.9375 C28.88906428 20.96037723 27.85597355 25.4682449 24.48046875 31.69921875 C20.78292765 37.44552933 15.53366549 40.3410615 9 42 C2.06624105 42.88247841 -3.59602747 40.60949696 -9.05859375 36.421875 C-13.11732193 32.67535668 -15.27583284 29.61229551 -16 24 C-16.23426495 16.376628 -15.78968501 10.38890119 -10.6171875 4.5234375 C-7.00561711 1.12123351 -5.00714392 0 0 0 Z " fill="#0C0C0C" transform="translate(620,467)"/>
<path d="M0 0 C0.66 0 1.32 0 2 0 C2 21.12 2 42.24 2 64 C-2.29 64 -6.58 64 -11 64 C-11.19813254 56.58031739 -11.34311115 49.16218221 -11.43945312 41.74047852 C-11.47962252 39.21741913 -11.53417058 36.69454525 -11.60351562 34.17211914 C-11.70084761 30.54006167 -11.74599414 26.91046977 -11.78125 23.27734375 C-11.82254028 22.15416245 -11.86383057 21.03098114 -11.90637207 19.87376404 C-11.91077465 12.14639466 -11.91077465 12.14639466 -9.27124023 8.82400513 C-7.13867188 6.98266602 -7.13867188 6.98266602 -5.01550293 5.49024963 C-2.8842932 4.06422115 -2.8842932 4.06422115 -1.36633301 1.81358337 C-0.68999817 0.9158596 -0.68999817 0.9158596 0 0 Z " fill="#28A6C7" transform="translate(559,464)"/>
<path d="M0 0 C12.87 0 25.74 0 39 0 C32 11 32 11 31 12 C27.97022196 12.08871273 24.96332978 12.1151935 21.93359375 12.09765625 C21.02497086 12.0962413 20.11634796 12.09482635 19.18019104 12.09336853 C16.26592779 12.08775193 13.35174019 12.07519665 10.4375 12.0625 C8.46679798 12.05748714 6.49609476 12.05292386 4.52539062 12.04882812 C-0.31643559 12.03777711 -5.15820495 12.02050138 -10 12 C-10 11.34 -10 10.68 -10 10 C-9.34 10 -8.68 10 -8 10 C-7.773125 9.4225 -7.54625 8.845 -7.3125 8.25 C-5.67083893 5.43572387 -3.56440947 3.97262267 -1 2 C-0.67 1.34 -0.34 0.68 0 0 Z " fill="#030404" transform="translate(217,465)"/>
<path d="M0 0 C2 2 2 2 2.22705078 4.33837891 C2.21134033 5.76802979 2.21134033 5.76802979 2.1953125 7.2265625 C2.18564453 8.7734375 2.18564453 8.7734375 2.17578125 10.3515625 C2.15902344 11.43179688 2.14226563 12.51203125 2.125 13.625 C2.11597656 14.71296875 2.10695313 15.8009375 2.09765625 16.921875 C2.07403518 19.61467649 2.03816333 22.30736535 2 25 C-1.96 25 -5.92 25 -10 25 C-10 17.08 -10 9.16 -10 1 C-6.7 1.33 -3.4 1.66 0 2 C0 1.34 0 0.68 0 0 Z " fill="#030404" transform="translate(559,502)"/>
<path d="M0 0 C1.01771484 0.03158203 2.03542969 0.06316406 3.08398438 0.09570312 C5.57985816 0.17772715 8.0696317 0.29239893 10.5625 0.4375 C9.80066406 1.17355469 9.03882813 1.90960938 8.25390625 2.66796875 C5.61129538 5.2311141 5.61129538 5.2311141 4.02734375 7.67578125 C1.57203734 11.01022551 -0.52320558 13.14296217 -4.75732422 13.79443359 C-10.65985397 14.13984654 -16.54598504 13.8751554 -22.4375 13.4375 C-22.4375 12.7775 -22.4375 12.1175 -22.4375 11.4375 C-21.7775 11.4375 -21.1175 11.4375 -20.4375 11.4375 C-20.16752197 10.85427979 -19.89754395 10.27105957 -19.61938477 9.67016602 C-14.96065911 0.86949547 -9.52247936 -0.56379025 0 0 Z " fill="#19B1D9" transform="translate(222.4375,442.5625)"/>
<path d="M0 0 C0.92232422 0.02707031 1.84464844 0.05414063 2.79492188 0.08203125 C5.0532652 0.15223881 7.30661037 0.25047106 9.5625 0.375 C8.14499476 2.07399565 6.71330009 3.75568026 5.25439453 5.41943359 C4.20217352 6.6356371 3.18057694 7.87995498 2.21044922 9.16259766 C0.03627983 11.79515245 -1.46214543 13.18804728 -4.87792969 13.84277344 C-7.71421834 13.96512314 -10.47784633 13.89979877 -13.3125 13.75 C-14.77429688 13.70939453 -14.77429688 13.70939453 -16.265625 13.66796875 C-18.65855929 13.59758833 -21.04685662 13.49921408 -23.4375 13.375 C-21.50289743 10.97977777 -19.49717513 8.66352793 -17.4375 6.375 C-16.912771 5.78509277 -16.38804199 5.19518555 -15.84741211 4.58740234 C-10.94921272 -0.29248465 -6.68937583 -0.3756453 0 0 Z " fill="#0994C2" transform="translate(251.4375,441.625)"/>
<path d="M0 0 C0.33 0 0.66 0 1 0 C1.00808685 0.91010834 1.01617371 1.82021667 1.02450562 2.75790405 C1.10234889 11.32220083 1.18960811 19.8863382 1.28752708 28.45042992 C1.33753753 32.85363979 1.38386693 37.25682512 1.421875 41.66015625 C1.45866811 45.90721588 1.50501133 50.15407244 1.55806351 54.40095901 C1.57663935 56.02368239 1.59173545 57.64644935 1.60334396 59.26923752 C1.62015225 61.53696372 1.64917295 63.80422158 1.68115234 66.07177734 C1.69447601 67.36417328 1.70779968 68.65656921 1.7215271 69.98812866 C1.68693383 73.11293605 1.68693383 73.11293605 4 75 C2.02 75.99 2.02 75.99 0 77 C0 51.59 0 26.18 0 0 Z " fill="#2B2A29" transform="translate(135,456)"/>
<path d="M0 0 C0.33 0.66 0.66 1.32 1 2 C1.66 2 2.32 2 3 2 C3.33 2.66 3.66 3.32 4 4 C5.97888961 4.72693904 7.97954558 5.39816251 10 6 C10.66 4.68 11.32 3.36 12 2 C12 4.31 12 6.62 12 9 C10.18757948 9.02687279 8.37504767 9.04633715 6.5625 9.0625 C5.55316406 9.07410156 4.54382813 9.08570313 3.50390625 9.09765625 C1 9 1 9 0 8 C-0.14115161 5.32941149 -0.04247107 2.67567762 0 0 Z " fill="#096C89" transform="translate(549,495)"/>
<path d="M0 0 C2 2 2 2 2.125 5.125 C2.08375 6.07375 2.0425 7.0225 2 8 C1.67 7.01 1.34 6.02 1 5 C-1.97 4.67 -4.94 4.34 -8 4 C-8.33 4.99 -8.66 5.98 -9 7 C-9.33 5.02 -9.66 3.04 -10 1 C-6.7 1.33 -3.4 1.66 0 2 C0 1.34 0 0.68 0 0 Z " fill="#051C22" transform="translate(559,502)"/>
<path d="M0 0 C0.66 0.33 1.32 0.66 2 1 C0.54782324 2.50596108 -0.91192861 4.00462104 -2.375 5.5 C-3.18710938 6.3353125 -3.99921875 7.170625 -4.8359375 8.03125 C-7 10 -7 10 -9 10 C-7.61811547 6.78956118 -6.07578097 4.95063635 -3.375 2.75 C-2.74335938 2.22921875 -2.11171875 1.7084375 -1.4609375 1.171875 C-0.73777344 0.59179688 -0.73777344 0.59179688 0 0 Z " fill="#1592BE" transform="translate(239,444)"/>
<path d="M0 0 C0.33 0 0.66 0 1 0 C1.04898438 0.77085937 1.09796875 1.54171875 1.1484375 2.3359375 C1.22320312 3.33882812 1.29796875 4.34171875 1.375 5.375 C1.44460937 6.37273438 1.51421875 7.37046875 1.5859375 8.3984375 C1.76363964 11.15508879 1.76363964 11.15508879 4 13 C2.02 13.99 2.02 13.99 0 15 C0 10.05 0 5.1 0 0 Z " fill="#2D2C2C" transform="translate(135,518)"/>
</svg>
